<?xml version="1.0" encoding="UTF-8" standalone="no"?>
<svg
   xmlns:osb="http://www.openswatchbook.org/uri/2009/osb"
   xmlns:dc="http://purl.org/dc/elements/1.1/"
   xmlns:cc="http://creativecommons.org/ns#"
   xmlns:rdf="http://www.w3.org/1999/02/22-rdf-syntax-ns#"
   xmlns:svg="http://www.w3.org/2000/svg"
   xmlns="http://www.w3.org/2000/svg"
   xmlns:sodipodi="http://sodipodi.sourceforge.net/DTD/sodipodi-0.dtd"
   xmlns:inkscape="http://www.inkscape.org/namespaces/inkscape"
   width="145"
   height="145"
   version="1.1"
   id="svg827"
   sodipodi:docname="icon.svg"
   inkscape:version="0.92.3 (2405546, 2018-03-11)">
  <metadata
     id="metadata833">
    <rdf:RDF>
      <cc:Work
         rdf:about="">
        <dc:format>image/svg+xml</dc:format>
        <dc:type
           rdf:resource="http://purl.org/dc/dcmitype/StillImage" />
        <dc:title></dc:title>
      </cc:Work>
    </rdf:RDF>
  </metadata>
  <defs
     id="defs831">
    <linearGradient
       id="linearGradient6031"
       osb:paint="solid">
      <stop
         style="stop-color:#3880ff;stop-opacity:1;"
         offset="0"
         id="stop6029" />
    </linearGradient>
    <linearGradient
       id="linearGradient6025"
       osb:paint="solid">
      <stop
         style="stop-color:#000000;stop-opacity:1;"
         offset="0"
         id="stop6023" />
    </linearGradient>
    <inkscape:path-effect
       effect="bspline"
       id="path-effect4549"
       is_visible="true"
       weight="33.333333"
       steps="2"
       helper_size="0"
       apply_no_weight="true"
       apply_with_weight="true"
       only_selected="false" />
  </defs>
  <sodipodi:namedview
     pagecolor="#ffffff"
     bordercolor="#666666"
     borderopacity="1"
     objecttolerance="10"
     gridtolerance="10"
     guidetolerance="10"
     inkscape:pageopacity="0"
     inkscape:pageshadow="2"
     inkscape:window-width="2560"
     inkscape:window-height="1377"
     id="namedview829"
     showgrid="false"
     inkscape:zoom="4.1369863"
     inkscape:cx="132.56986"
     inkscape:cy="64.893163"
     inkscape:window-x="1912"
     inkscape:window-y="-8"
     inkscape:window-maximized="1"
     inkscape:current-layer="layer4" />
  <g
     inkscape:groupmode="layer"
     id="layer4"
     inkscape:label="background"
     style="display:none"
     transform="translate(0.9668874,-0.27483085)" />
  <g
     inkscape:groupmode="layer"
     id="layer1"
     inkscape:label="tick"
     style="display:inline"
     transform="translate(0.9668874,-0.27483085)">
    <path
       style="fill:#3880ff;fill-opacity:1;stroke:#3880ff;stroke-width:1.08198118px;stroke-linecap:butt;stroke-linejoin:miter;stroke-opacity:1"
       d="M 32.20788,93.002882 59.897628,117.90366 C 81.711315,96.803417 97.813013,80.946856 109.0799,69.528718 L 102.22338,62.784759 59.50206,104.80481 39.723668,85.351084 Z"
       id="path4555"
       inkscape:connector-curvature="0"
       sodipodi:nodetypes="ccccccc" />
  </g>
  <g
     inkscape:groupmode="layer"
     id="layer3"
     inkscape:label="calender"
     style="display:inline;opacity:1"
     transform="translate(0.9668874,-0.27483085)">
    <path
       inkscape:connector-curvature="0"
       d="M 13.866225,124.56622 V 35.566225 c 0,-2.4 0.9,-4.5 2.6,-6.3 1.7,-1.8 3.8,-2.6 6.2,-2.6 h 8.8 v -6.7 c 0,-3.1 1.1,-5.7 3.2,-7.9 2.2,-2.1999998 4.7,-3.2999998 7.800004,-3.2999998 h 4.4 c 3,0 5.6,1.1 7.8,3.2999998 2.2,2.2 3.2,4.8 3.2,7.9 v 6.7 h 26.4 v -6.7 c 0,-3.1 1.1,-5.7 3.2,-7.9 2.2,-2.1999998 4.7,-3.2999998 7.8,-3.2999998 h 4.4 c 3.000001,0 5.600001,1.1 7.800001,3.2999998 2.2,2.2 3.2,4.8 3.2,7.9 v 6.7 h 8.8 c 2.4,0 4.4,0.9 6.2,2.6 1.7,1.8 2.6,3.8 2.6,6.3 v 88.899995 c 0,2.4 -0.9,4.5 -2.6,6.3 -1.7,1.8 -3.8,2.6 -6.2,2.6 H 22.666225 c -2.4,0 -4.4,-0.9 -6.2,-2.6 -1.7,-1.8 -2.6,-3.8 -2.6,-6.2 z m 8.8,0 H 119.46623 V 53.366225 H 22.666225 Z m 17.6,-84.499995 c 0,0.6 0.2,1.2 0.6,1.6 0.400004,0.4 0.900004,0.6 1.600004,0.6 h 4.4 c 0.6,0 1.2,-0.2 1.6,-0.6 0.4,-0.4 0.6,-0.9 0.6,-1.6 v -20 c 0,-0.6 -0.2,-1.2 -0.6,-1.6 -0.4,-0.4 -0.9,-0.6 -1.6,-0.6 h -4.4 c -0.6,0 -1.2,0.2 -1.600004,0.6 -0.4,0.4 -0.6,1 -0.6,1.6 z m 52.800004,0 c 0,0.6 0.2,1.2 0.6,1.6 0.4,0.4 0.9,0.6 1.6,0.6 h 4.4 c 0.600001,0 1.200001,-0.2 1.600001,-0.6 0.4,-0.4 0.6,-0.9 0.6,-1.6 v -20 c 0,-0.6 -0.2,-1.2 -0.6,-1.6 -0.4,-0.4 -0.9,-0.6 -1.600001,-0.6 h -4.4 c -0.6,0 -1.2,0.2 -1.6,0.6 -0.4,0.4 -0.6,1 -0.6,1.6 z"
       id="path825"
       style="fill:#154eb2;fill-opacity:1;stroke:#154eb2;stroke-opacity:1" />
  </g>
</svg>
